Coordinates
version=1
nRows=16
nColumns=33
inDegrees=yes

Units are S.I. units (second, meters, Newtons, ...)
Angles are in degrees.

endheader
time	ground_thorax_rot_x	ground_thorax_rot_y	ground_thorax_rot_z	ground_thorax_tx	ground_thorax_ty	ground_thorax_tz	clav_prot_r	clav_elev_r	scapula_abduction_r	scapula_elevation_r	scapula_upward_rot_r	scapula_winging_r	shoulder_elv_r	plane_of_elev_r	axial_rot_r	elbow_flexion_r	pro_sup_r	wrist_flex_r	wrist_dev_r	clav_prot_l	clav_elev_l	scapula_abduction_l	scapula_elevation_l	scapula_upward_rot_l	scapula_winging_l	shoulder_elv_l	plane_of_elev_l	axial_rot_l	elbow_flexion_l	pro_sup_l	wrist_flex_l	wrist_dev_l
      8.51000000	    -34.29820938	    -19.81751384	     31.29518938	    -31.48119121	    789.29148197	    -53.72631222	     28.90152505	    -45.00000000	     38.16732201	    -45.00000000	    -45.00000000	    623.87591499	  -4968.93788236	     19.74004282	    179.99999979	   1447.95648024	   -151.75555029	     13.57599006	     13.38832731	      2.49766497	     30.11715099	    -30.16966355	    -45.00000000	    -45.00000000	  -3519.20157872	    629.49573276	    133.36577827	   -103.88407760	    710.58114852	    411.58923653	     11.39106114	    -17.36079969
      8.52000000	    -34.42401987	    -19.72018146	     31.00920625	    -34.22284485	    790.44025973	    -53.57231624	     28.89859550	    -45.00000000	     38.12525932	    -45.00000000	    -45.00000000	    623.65672269	  -4968.91245044	     19.79974523	    179.99999979	   1447.89266336	   -151.87122803	     13.61396193	     13.45299095	      2.42324445	     30.19502899	    -30.17325434	    -45.00000000	    -45.00000000	  -3519.06582756	    629.54178115	    133.35429353	   -103.81349070	    710.52429808	    411.35536325	     11.50263424	    -17.37872432
      8.53000000	    -34.53002207	    -19.61107040	     30.73496762	    -36.94005561	    791.65024053	    -53.42409241	     28.86358047	    -45.00000000	     38.07673749	    -45.00000000	    -45.00000000	    623.48133523	  -4968.83547436	     19.82295075	    179.99999979	   1447.82066965	   -152.00750518	     13.65036872	     13.49516516	      2.38879465	     30.19134468	    -30.19203767	    -45.00000000	    -45.00000000	  -3518.97326054	    629.54034111	    133.38115960	   -103.91508097	    710.48326676	    411.11413019	     11.59668080	    -17.38329049
      8.54000000	    -34.65845489	    -19.49219088	     30.41016273	    -39.62822068	    792.92329243	    -53.28441649	     28.81208742	    -45.00000000	     38.00824869	    -45.00000000	    -45.00000000	    623.28465714	  -4968.78014589	     19.93783601	    179.99999979	   1447.78661465	   -152.12351118	     13.69525110	     13.55773088	      2.30790783	     30.25504906	    -30.19743738	    -45.00000000	    -45.00000000	  -3518.81458584	    629.58152776	    133.31904074	   -103.74537981	    710.45560231	    410.88155950	     11.69285251	    -17.39044864
      8.55000000	    -34.74072924	    -19.38697609	     30.12719061	    -42.28256351	    794.25912136	    -53.15457097	     28.77755014	    -45.00000000	     37.98475630	    -45.00000000	    -45.00000000	    623.10042530	  -4968.67821691	     20.00642170	    179.99999979	   1447.74051448	   -152.25092250	     13.74163586	     13.60377765	      2.26146310	     30.29263329	    -30.19944372	    -45.00000000	    -45.00000000	  -3518.71685443	    629.59718376	    133.31265457	   -103.71079767	    710.37203369	    410.65424769	     11.80625468	    -17.38732946
      8.56000000	    -34.83274000	    -19.31595066	     29.86809926	    -44.89759016	    795.65531932	    -53.03421169	     28.76367079	    -45.00000000	     37.98034526	    -45.00000000	    -45.00000000	    622.87128286	  -4968.63973047	     20.08551425	    179.99999979	   1447.67737601	   -152.39046764	     13.81460083	     13.66990454	      2.18220112	     30.36034135	    -30.18609687	    -45.00000000	    -45.00000000	  -3518.61746831	    629.66981020	    133.31009836	   -103.66201535	    710.28912876	    410.42337136	     11.92724334	    -17.38662123
      8.57000000	    -34.93054038	    -19.22857498	     29.61535101	    -47.47302343	    797.10950880	    -52.92187124	     28.73646475	    -45.00000000	     37.96442558	    -45.00000000	    -45.00000000	    622.66325276	  -4968.57715091	     20.15355188	    179.99999979	   1447.61688730	   -152.55121572	     13.88490315	     13.73382819	      2.11783978	     30.41651069	    -30.18499199	    -45.00000000	    -45.00000000	  -3518.49981860	    629.72166490	    133.30276890	   -103.59263570	    710.24334827	    410.18495138	     12.04411947	    -17.39818348
      8.58000000	    -35.04331444	    -19.11772477	     29.31888579	    -50.00462769	    798.61512613	    -52.81609064	     28.64835307	    -45.00000000	     37.88162895	    -45.00000000	    -45.00000000	    622.50147159	  -4968.48397524	     20.23978339	    179.99999979	   1447.58450944	   -152.72319646	     13.93973788	     13.77952362	      2.06864044	     30.44171942	    -30.20434324	    -45.00000000	    -45.00000000	  -3518.36081036	    629.73980629	    133.25731938	   -103.47684712	    710.26417887	    409.95302308	     12.12424432	    -17.40728612
      8.59000000	    -35.14770652	    -19.01766707	     29.04364278	    -52.49205334	    800.16450100	    -52.71546240	     28.59655114	    -45.00000000	     37.81786317	    -45.00000000	    -45.00000000	    622.31732268	  -4968.40129071	     20.33053698	    179.99999979	   1447.54967364	   -152.92087554	     13.99447974	     13.83874080	      2.00992565	     30.47127124	    -30.22218894	    -45.00000000	    -45.00000000	  -3518.20813858	    629.76084990	    133.20768694	   -103.38202212	    710.27964787	    409.72767751	     12.21832484	    -17.43420775
      8.60000000	    -32.87853180	    -19.26822426	     29.73506705	    -53.54922877	    792.63392834	    -40.34969344	     28.75387227	    -45.00000000	     38.94866479	    -45.00000000	    -45.00000000	    620.47128613	  -4967.65479419	     21.49350419	    179.99999979	   1448.38157356	   -156.41068129	     14.12971434	     13.69738202	      0.84958873	     30.88573421	    -29.79540494	    -45.00000000	    -45.00000000	  -3518.03910553	    630.05498901	    133.22201148	   -103.01851002	    709.92549862	    409.09792861	     12.59070812	    -17.39759476
      8.61000000	    -33.12398592	    -19.13083863	     29.25898641	    -56.12843460	    794.22757980	    -40.24584132	     28.71039086	    -45.00000000	     38.65559072	    -45.00000000	    -45.00000000	    620.85230409	  -4967.38497852	     21.24759599	    179.99999979	   1448.37800937	   -156.49897675	     14.30908640	     13.72347641	      0.88752075	     30.50082750	    -30.01735287	    -45.00000000	    -45.00000000	  -3517.96810832	    630.03792764	    133.35598369	   -103.04485322	    709.97001476	    408.74304439	     12.58839264	    -17.34423674
      8.62000000	    -33.16314299	    -19.15539558	     29.12631417	    -58.63804226	    795.86427420	    -40.14554483	     28.68377558	    -45.00000000	     38.63508352	    -45.00000000	    -45.00000000	    620.51894581	  -4967.32751832	     21.38180689	    179.99999979	   1448.34466608	   -156.62225959	     14.44395272	     13.72777786	      0.79225383	     30.70637268	    -29.94361811	    -45.00000000	    -45.00000000	  -3517.84374673	    630.08511204	    133.33446835	   -102.97194957	    709.91688536	    408.45377224	     12.68253595	    -17.33920416
      8.63000000	    -33.29148698	    -19.03311253	     28.80541707	    -61.08583523	    797.53187316	    -40.05139055	     28.66010204	    -45.00000000	     38.58717599	    -45.00000000	    -45.00000000	    620.39943714	  -4967.22869073	     21.42956693	    179.99999979	   1448.35807891	   -156.80565805	     14.54574803	     13.77297288	      0.76618162	     30.69772138	    -30.00829220	    -45.00000000	    -45.00000000	  -3517.73718593	    630.18182278	    133.28851361	   -102.73970727	    709.87825128	    408.21454148	     12.78313329	    -17.36680046
      8.64000000	    -33.37958983	    -18.99238221	     28.57140021	    -63.47451782	    799.21730879	    -39.96593985	     28.63833697	    -45.00000000	     38.56172849	    -45.00000000	    -45.00000000	    620.16748658	  -4967.15682673	     21.50387173	    179.99999979	   1448.27464319	   -157.09144766	     14.64786908	     13.82056951	      0.70627054	     30.78391831	    -29.99709883	    -45.00000000	    -45.00000000	  -3517.62450449	    630.25057629	    133.25665285	   -102.55996501	    709.84498013	    408.00814119	     12.88103815	    -17.40847078
      8.65000000	    -33.50985030	    -18.90312437	     28.30812067	    -65.81036219	    800.91094915	    -39.89296992	     28.58704403	    -45.00000000	     38.52655598	    -45.00000000	    -45.00000000	    620.01442063	  -4967.07053253	     21.54975999	    179.99999979	   1448.26110336	   -157.46956565	     14.70863072	     13.86374690	      0.68072212	     30.82882671	    -30.02818092	    -45.00000000	    -45.00000000	  -3517.51462468	    630.32736154	    133.25000433	   -102.35406208	    709.82123377	    407.82930755	     12.95773481	    -17.43820684
      8.66000000	    -33.62853323	    -18.83355333	     28.00466080	    -68.10540875	    802.60926383	    -39.83699275	     28.53466576	    -45.00000000	     38.49064174	    -45.00000000	    -45.00000000	    619.82446968	  -4967.03526015	     21.63760904	    179.99999979	   1448.25183697	   -157.92188354	     14.77587261	     13.94672402	      0.63529203	     30.86636719	    -30.10060143	    -45.00000000	    -45.00000000	  -3517.36788479	    630.42450441	    133.17860993	   -102.09293878	    709.81047853	    407.66193830	     13.06239468	    -17.50355407
